<svg id="Layer_1" data-name="Layer 1" xmlns="http://www.w3.org/2000/svg" viewBox="0 0 459.65 49.76"><defs><style>.cls-1{fill:#3d90ce;}</style></defs><path class="cls-1" d="M84.57,143.43l9-12.39h12.09c2.88,0,6.27,0,8.57.15-1.29-1.73-3.31-4.68-4.89-7l-8.64-12.74-22.61,32H60.44L91.33,99.86c2-2.8,5-5.4,9.65-5.4,4.47,0,7.42,2.38,9.51,5.4l30.1,43.57Z" transform="translate(-60.44 -94.46)"/><path class="cls-1" d="M199.77,131l-9.58,12.39H166c-16.71,0-29-10.59-29-24.56s12.31-23.61,29-23.61h33.77l-9.58,12.53H166c-8.07,0-14.11,4.82-14.11,11.73S157.86,131,166,131Z" transform="translate(-60.44 -94.46)"/><path class="cls-1" d="M266.22,131l-9.57,12.39h-24.2c-16.7,0-29-10.59-29-24.56s12.31-23.61,29-23.61h33.77l-9.57,12.53h-24.2c-8.06,0-14.11,4.82-14.11,11.73s6,11.52,14.11,11.52Z" transform="translate(-60.44 -94.46)"/><path class="cls-1" d="M322,143.43H276.37c-3.74,0-6.91-2.16-6.91-6.05a7.79,7.79,0,0,1,3.24-6l17.57-13.82c8-6.41,11.45-8.79,13.25-10.08-2.59.21-7,.29-16.56.29h-19.3l9.5-12.53h44.43c3.74,0,6.91,2.16,6.91,6a7.64,7.64,0,0,1-3.24,5.91l-17.78,14.11c-7.92,6.27-11.24,8.72-13.11,10,2.38-.14,11.6-.29,19.16-.29H331Z" transform="translate(-60.44 -94.46)"/><path class="cls-1" d="M351.25,143.43h-14.9V95.26h14.9Z" transform="translate(-60.44 -94.46)"/><path class="cls-1" d="M429.45,119.31c0,17.21-11.81,24.91-35.21,24.91S359,136.52,359,119.31s11.73-24.85,35.21-24.85S429.45,102.1,429.45,119.31Zm-14.84,0c0-10.37-5.4-12.32-20.37-12.32s-20.38,2-20.38,12.32,5.4,12.38,20.38,12.38S414.61,129.67,414.61,119.31Z" transform="translate(-60.44 -94.46)"/><path class="cls-1" d="M468.18,113.19c4.25,7.41,6.12,11,7.78,14.4,1.58-3.39,3.45-6.92,7.7-14.33l7.71-13.68c1.73-3.1,4.32-5.12,8.21-5.12s7.05,2.16,8.35,6.63l12.17,42.34H505.26l-4.53-16.78c-1.51-5.47-2.52-9.36-3.31-13.25-1.59,3.39-3.39,7.06-6.7,13.32l-6.48,12.1c-2.52,4.75-5,5.4-8.57,5.4s-6.05-.65-8.57-5.4l-6.48-12.17c-3.53-6.62-5.26-10-6.77-13.25-.72,3.82-1.8,7.85-3.24,13.25l-4.53,16.78H431.46l12.46-42.34c1.29-4.47,4.68-6.63,8.42-6.63s6.41,2,8.14,5.12Z" transform="translate(-60.44 -94.46)"/></svg>