<svg width="33" height="24" viewBox="0 0 33 24" fill="none" xmlns="http://www.w3.org/2000/svg">
<path d="M2.82395 0.0850983C1.46429 0.0850983 0.362061 1.18732 0.362061 2.54699C0.362061 3.47948 0.888911 4.33195 1.72296 4.74897L14.9541 11.3645C15.7987 11.7868 16.7928 11.7868 17.6374 11.3645L30.8685 4.74897C31.7026 4.33195 32.2294 3.47948 32.2294 2.54699C32.2294 1.18732 31.1272 0.0850983 29.7675 0.0850983H2.82395ZM4.7037 10.2228C2.709 9.22541 0.362061 10.6759 0.362061 12.906V20.9856C0.362061 22.6425 1.70521 23.9856 3.36206 23.9856H29.2294C30.8863 23.9856 32.2294 22.6425 32.2294 20.9856V12.906C32.2294 10.6759 29.8825 9.22541 27.8878 10.2228L17.6374 15.348C16.7928 15.7703 15.7987 15.7703 14.9541 15.348L4.7037 10.2228Z" fill="#818181"/>
</svg>
